<svg xmlns="http://www.w3.org/2000/svg" width="450" height="450" viewBox="0 0 450 450">
  <g fill="none" fill-rule="evenodd">
    <polygon fill="#0BC3BB" points="0 449.94 450 449.94 450 0 0 0"/>
    <polygon points="105.23 389.749 344.77 389.749 344.77 354.479 105.23 354.479"/>
    <path fill="#FFFFFF" d="M206.839935,316.283694 C194.494318,309.742819 186.077453,296.747238 186.077453,281.772426 C186.077453,260.222271 203.503604,242.752541 225,242.752541 C240.549712,242.752541 253.963802,251.895714 260.200084,265.112682 C273.722608,289.385771 263.607824,332.893062 214.052125,342.896597 C178.774021,350.015466 155.807152,334.841803 143.497239,322.380468 C158.400314,352.38312 189.296094,373 225,373 C235.752858,373 246.070023,371.130415 255.645728,367.697818 C290.827169,355.086345 316,321.376522 316,281.772426 C316,231.388864 275.259198,190.544852 225,190.544852 C211.046385,190.544852 197.83065,193.699956 186.012657,199.32479 L186.012657,130.745029 C186.012657,91.5514803 152.300235,76 134,76 L134.158684,268.406982 C134.158684,322.270437 189.727186,331.522316 206.839935,316.283694 Z"/>
  </g>
</svg>
